<svg xmlns="http://www.w3.org/2000/svg" xmlns:xlink="http://www.w3.org/1999/xlink" fill="#000000" height="800px" width="800px" version="1.1" id="Layer_1" viewBox="0 0 511.999 511.999" xml:space="preserve">
<g>
	<g>
		<path d="M236.067,364.131l-44.248-41.708c-6.559-6.184-16.89-5.878-23.072,0.681c-6.184,6.559-5.878,16.889,0.681,23.072    l44.248,41.708c3.152,2.972,7.176,4.445,11.192,4.445c4.339,0,8.669-1.72,11.88-5.126    C242.932,380.644,242.626,370.315,236.067,364.131z"/>
	</g>
</g>
<g>
	<g>
		<path d="M206.922,395.049l-44.247-41.707c-6.559-6.184-16.89-5.877-23.072,0.681c-6.184,6.559-5.878,16.889,0.681,23.072    l44.247,41.707c3.152,2.972,7.176,4.445,11.192,4.445c4.339,0,8.669-1.72,11.88-5.126    C213.787,411.562,213.481,401.232,206.922,395.049z"/>
	</g>
</g>
<g>
	<g>
		<path d="M503.609,94.807l-30.805-82.972c-2.376-6.399-8.141-10.926-14.922-11.712c-6.783-0.792-13.431,2.295-17.21,7.979    l-57.194,86.012c-0.075,0.113-0.149,0.227-0.222,0.343c-1.37,2.164-2.389,4.463-3.09,6.826l-79.254,84.079    c-4.21-6.919-11.36-11.708-19.513-12.823c-24.279-3.319-48.799,5.33-65.589,23.142c-3.823,4.055-7.435,10.189-13.489,20.68    c-3.846,6.665-8.206,14.219-12.365,20.327c-3.015,4.427-6.92,8.141-11.608,11.038l-64.37,39.774    c-17.859,11.036-34.318,24.213-49.035,39.174l-37.255-4.716c-9.941-1.258-19.029,5.783-20.288,15.729    c-1.259,9.945,5.782,19.029,15.729,20.288l23.548,2.98c-0.452,4.262-0.385,8.613,0.268,12.974    c2.321,15.52,11.471,28.876,25.105,36.646c33.391,19.029,62.123,46.112,83.091,78.322c8.561,13.15,22.435,21.496,38.063,22.897    c1.548,0.138,3.09,0.207,4.624,0.207c13.959,0,27.207-5.683,36.905-15.97c16.265-17.255,30.113-36.642,41.161-57.622    l35.878-68.134c1.111-2.109,2.708-3.918,4.622-5.234c4.075-2.801,8.704-5.285,13.606-7.915c3.109-1.668,6.323-3.393,9.57-5.293    c11.934-6.981,19.408-15.521,22.215-25.382c2.383-8.374,0.684-17.587-4.544-24.46c-5.074-6.669-12.778-10.591-21.164-10.591    c-0.066,0-0.134,0-0.199,0c-1.017,0-2.379-0.162-3.576-1.533c-0.963-1.102-1.305-2.742-0.873-4.26    c0.175-0.615,0.321-1.209,0.453-1.831l111.025-117.773c5.787-1.003,11.073-3.825,15.173-8.175l41.718-44.256    C504.536,108.548,506.012,101.279,503.609,94.807z M312.836,325.135c-5.55,2.978-11.289,6.057-17.006,9.989    c-6.742,4.635-12.336,10.94-16.178,18.233l-35.879,68.135c-9.517,18.071-21.444,34.772-35.455,49.635    c-3.077,3.264-7.407,4.906-11.871,4.506c-4.468-0.4-8.433-2.787-10.881-6.545c-24.11-37.035-57.148-68.175-95.54-90.056    c-3.898-2.221-6.512-6.039-7.176-10.475s0.72-8.852,3.799-12.117l0.824-0.875c13.503-14.325,28.84-26.836,45.587-37.183    l64.37-39.774c9.05-5.592,16.631-12.822,22.531-21.488c4.919-7.224,9.638-15.4,13.802-22.614    c2.964-5.135,7.012-12.149,8.556-14.022c5.387-5.677,12.287-9.555,19.742-11.298c-2.332,6.625-3.305,13.596-2.936,20.508    l-35.736,37.912c-8.25,8.753-12.598,20.194-12.242,32.217c0.356,12.022,5.371,23.188,14.124,31.438    c8.684,8.185,19.788,12.241,30.874,12.241c11.979,0,23.936-4.739,32.78-14.123l15.383-16.318c0.22,0.267,0.429,0.539,0.657,0.8    c3.329,3.811,7.279,6.927,11.631,9.248C315.371,323.776,314.118,324.448,312.836,325.135z M262.506,304.479    c-3.3,3.503-8.835,3.665-12.336,0.365c-2.288-2.157-2.696-4.742-2.737-6.092c-0.04-1.35,0.215-3.955,2.372-6.244l146.448-155.365    l12.7,11.971L262.506,304.479z M437.805,126.421l-19.801-18.665l33.169-49.881l14.481,39.002L437.805,126.421z"/>
	</g>
</g>
</svg>