<svg xmlns="http://www.w3.org/2000/svg" xmlns:xlink="http://www.w3.org/1999/xlink" fill="#000000" height="800px" width="800px" version="1.1" id="Layer_1" viewBox="0 0 511.999 511.999" xml:space="preserve">
<g>
	<g>
		<path d="M506.762,481.117l-94.468-94.468c30.91-36.147,50.728-82.04,54.144-132.366c6.754-2.555,11.565-9.063,11.565-16.711    c0-7.706-4.885-14.254-11.719-16.767c-8.742-112.151-98.994-201.77-211.411-209.54c-2.718-6.41-9.068-10.907-16.468-10.907    c-7.43,0-13.799,4.533-16.499,10.985c-111.849,8.33-201.479,97.716-210.189,209.462C4.884,223.317,0,229.864,0,237.571    c0,7.648,4.811,14.155,11.564,16.711c7.649,112.637,97.464,203.089,209.836,211.71c2.324,7.176,9.055,12.37,17.005,12.37    c7.921,0,14.627-5.156,16.977-12.29c50.04-3.57,95.661-23.361,131.629-54.132l94.465,94.465c3.491,3.491,8.068,5.238,12.643,5.238    c4.575,0,9.152-1.745,12.643-5.238C513.745,499.42,513.745,488.099,506.762,481.117z M386.932,361.286l-15.846-15.846    c23.643-29.196,37.83-66.348,37.83-106.757c0-93.692-76.223-169.915-169.915-169.915S69.085,144.992,69.085,238.683    c0,93.692,76.224,169.917,169.917,169.917c40.43,0,77.6-14.203,106.803-37.868l15.844,15.844    c-33.305,27.668-76.066,44.328-122.648,44.328c-105.992,0-192.222-86.23-192.222-192.221S133.01,46.463,239.002,46.463    c105.99,0,192.221,86.23,192.221,192.221C431.222,285.244,414.578,327.986,386.932,361.286z M303.203,203.567    c-27.369-27.369-71.904-27.37-99.276,0c-27.37,27.37-27.37,71.906,0,99.277c13.685,13.685,31.663,20.527,49.638,20.527    c12.239,0,24.474-3.179,35.358-9.522l31.431,31.431c-22.583,17.276-50.788,27.558-81.352,27.558    c-73.974,0-134.156-60.182-134.156-134.156s60.182-134.154,134.156-134.154s134.154,60.182,134.154,134.154    c0,30.543-10.267,58.73-27.522,81.305l-31.414-31.414c6.216-10.621,9.543-22.737,9.543-35.369    C323.764,234.454,316.462,216.826,303.203,203.567z M288.006,253.206c0,8.817-3.3,17.123-9.3,23.526    c-0.287,0.25-0.577,0.493-0.849,0.765c-0.268,0.268-0.507,0.554-0.755,0.836c-13.482,12.638-34.725,12.386-47.887-0.775    c-13.427-13.428-13.427-35.276,0-48.703c6.714-6.714,15.532-10.07,24.352-10.07c8.82,0,17.638,3.357,24.352,10.07    C284.424,235.36,288.006,244.007,288.006,253.206z"/>
	</g>
</g>
</svg>