<svg xmlns="http://www.w3.org/2000/svg" xmlns:xlink="http://www.w3.org/1999/xlink" fill="#000000" height="800px" width="800px" version="1.1" id="Layer_1" viewBox="0 0 512 512" xml:space="preserve">
<g>
	<g>
		<path d="M221.86,325.934l-20.98-20.981c-6.469-6.47-16.96-6.47-23.43,0s-6.47,16.96,0,23.43l20.981,20.981    c3.235,3.235,7.475,4.853,11.714,4.853c4.239,0,8.48-1.617,11.714-4.853C228.33,342.893,228.33,332.404,221.86,325.934z"/>
	</g>
</g>
<g>
	<g>
		<path d="M250.913,296.881l-20.982-20.98c-6.469-6.469-16.96-6.47-23.43,0c-6.469,6.47-6.469,16.96,0,23.43l20.982,20.981    c3.235,3.235,7.475,4.852,11.714,4.852s8.48-1.617,11.715-4.853C257.382,313.84,257.382,303.351,250.913,296.881z"/>
	</g>
</g>
<g>
	<g>
		<path d="M511.439,62.68c-1.821-6.832-7.778-11.755-14.83-12.258l-54.346-3.872c-5.912-0.422-11.599,2.348-14.913,7.262    l-25.08,37.186c-3.557,5.273-3.708,11.972-0.739,17.311L290.534,219.306l-12.218-12.218c-5.057-5.059-12.791-6.298-19.18-3.076    L9.103,330.195c-6.455,3.257-10.052,10.326-8.886,17.462s6.825,12.692,13.982,13.726l147.584,21.323l10.12,68.635    c0.985,6.683,5.93,12.1,12.496,13.687c1.294,0.313,2.6,0.465,3.893,0.465c5.268,0,10.32-2.519,13.475-6.931l128.606-179.824    c4.714-6.591,3.968-15.623-1.761-21.352l-14.649-14.649l113.888-113.887c0.063,0.001,0.126,0.009,0.189,0.009    c3.203,0,6.426-0.927,9.242-2.822l67.396-45.342C510.546,76.747,513.262,69.512,511.439,62.68z M198.695,405.899l-5.933-40.24    c-1.068-7.248-6.771-12.933-14.021-13.981L70.942,336.103l192.421-97.107l3.741,3.741l-10.57,10.57c-6.47,6.47-6.47,16.96,0,23.43    c3.235,3.235,7.474,4.853,11.714,4.853c4.239,0,8.48-1.618,11.714-4.853l10.57-10.57l4.72,4.719L198.695,405.899z"/>
	</g>
</g>
</svg>