<svg xmlns="http://www.w3.org/2000/svg" xmlns:xlink="http://www.w3.org/1999/xlink" fill="#000000" height="800px" width="800px" version="1.1" id="Layer_1" viewBox="0 0 512.001 512.001" xml:space="preserve">
<g>
	<g>
		<path d="M460.401,199.61c-4.701-17.022-11.472-33.192-20.032-48.219c8.562-10.179,13.236-22.913,13.236-36.371    c0-15.126-5.89-29.344-16.585-40.04c-20.895-20.896-54.183-22.003-76.406-3.346c-15.028-8.561-31.199-15.332-48.223-20.035    C309.838,22.723,285.529,0,256.001,0s-53.838,22.723-56.39,51.6c-17.023,4.702-33.194,11.473-48.223,20.034    c-22.223-18.655-55.512-17.547-76.406,3.346c-10.696,10.695-16.585,24.914-16.585,40.04c0,13.458,4.673,26.192,13.236,36.371    c-8.56,15.027-15.33,31.197-20.032,48.219C22.724,202.165,0.001,226.471,0.001,256s22.723,53.836,51.599,56.39    c4.701,17.022,11.472,33.192,20.032,48.219c-8.562,10.179-13.236,22.913-13.236,36.371c0,15.126,5.89,29.344,16.585,40.04    c11.039,11.04,25.539,16.559,40.04,16.559c12.946,0,25.884-4.413,36.367-13.212c15.028,8.561,31.199,15.332,48.223,20.035    c2.552,28.876,26.861,51.6,56.39,51.6c29.529,0,53.838-22.723,56.39-51.6c17.023-4.702,33.194-11.473,48.223-20.035    c10.482,8.8,23.419,13.212,36.367,13.212c14.499,0,29.002-5.521,40.04-16.559c10.696-10.695,16.585-24.914,16.585-40.04    c0-13.458-4.673-26.192-13.236-36.371c8.56-15.027,15.33-31.197,20.032-48.219c28.874-2.553,51.597-26.861,51.597-56.39    S489.278,202.164,460.401,199.61z M44.915,275.896c-6.813-4.025-11.406-11.425-11.406-19.896c0-8.47,4.593-15.869,11.406-19.896    c-0.613,6.552-0.94,13.187-0.94,19.896S44.303,269.344,44.915,275.896z M396.982,91.915c5.92,0,11.84,2.254,16.346,6.76    c4.365,4.366,6.77,10.171,6.77,16.346c0,2.024-0.284,4.001-0.784,5.907c-8.507-10.268-17.961-19.723-28.228-28.231    C393.016,92.191,394.997,91.915,396.982,91.915z M256.001,33.508c8.471,0,15.871,4.593,19.897,11.406    c-6.553-0.613-13.187-0.94-19.897-0.94s-13.344,0.328-19.897,0.94C240.13,38.101,247.53,33.508,256.001,33.508z M98.675,98.675    c4.507-4.506,10.427-6.76,16.346-6.76c1.985,0,3.965,0.276,5.896,0.783c-10.267,8.508-19.722,17.963-28.228,28.231    c-0.503-1.907-0.785-3.884-0.785-5.907C91.904,108.847,94.309,103.041,98.675,98.675z M98.675,413.326    c-4.366-4.366-6.771-10.171-6.771-16.346c0-2.024,0.284-4.001,0.784-5.908c8.507,10.268,17.961,19.723,28.228,28.231    C113.225,421.319,104.692,419.342,98.675,413.326z M256.001,478.492c-8.471,0-15.871-4.593-19.897-11.406    c6.553,0.613,13.187,0.94,19.897,0.94s13.344-0.328,19.897-0.94C271.872,473.899,264.471,478.492,256.001,478.492z     M413.327,413.326c-6.018,6.017-14.55,7.994-22.243,5.977c10.267-8.508,19.722-17.963,28.228-28.231    c0.502,1.907,0.785,3.884,0.785,5.907C420.098,403.154,417.693,408.96,413.327,413.326z M256.001,434.518    c-98.436,0-178.519-80.082-178.519-178.518S157.565,77.482,256.001,77.482S434.52,157.564,434.52,256    S354.436,434.518,256.001,434.518z M467.086,275.896c0.613-6.552,0.94-13.187,0.94-19.896s-0.328-13.344-0.94-19.896    c6.813,4.027,11.406,11.426,11.406,19.896C478.492,264.47,473.9,271.869,467.086,275.896z"/>
	</g>
</g>
<g>
	<g>
		<path d="M256.002,94.48c-89.062,0-161.52,72.458-161.52,161.52s72.458,161.52,161.52,161.52s161.52-72.457,161.52-161.52    C417.522,166.938,345.064,94.48,256.002,94.48z M256.001,384.012c-70.586,0-128.012-57.425-128.012-128.012    c0-70.586,57.426-128.012,128.012-128.012S384.013,185.414,384.013,256S326.587,384.012,256.001,384.012z"/>
	</g>
</g>
</svg>