<svg xmlns="http://www.w3.org/2000/svg" xmlns:xlink="http://www.w3.org/1999/xlink" fill="#000000" height="800px" width="800px" version="1.1" id="Layer_1" viewBox="0 0 512 512" xml:space="preserve">
<g>
	<g>
		<path d="M298.663,28.803c-11.975,0-23.717,1.007-35.16,2.914c-11.826-1.907-23.949-2.914-36.305-2.914    C101.92,28.803,0,130.723,0,256s101.92,227.196,227.197,227.196c42.893,0,83.045-11.952,117.308-32.695    C440.18,429.469,512,344.042,512,242.141C512,124.506,416.297,28.803,298.663,28.803z M227.197,449.086    C120.73,449.086,34.111,362.468,34.111,256S120.73,62.914,227.197,62.914c106.468,0,193.086,86.619,193.086,193.086    S333.663,449.086,227.197,449.086z M423.023,371.072c19.921-33.771,31.37-73.106,31.37-115.072    c0-73.313-34.914-138.614-88.977-180.184c65.861,26.529,112.473,91.081,112.473,166.324    C477.889,292.713,456.827,338.454,423.023,371.072z"/>
	</g>
</g>
<g>
	<g>
		<path d="M227.197,84.302c-94.675,0-171.699,77.024-171.699,171.698c0,94.675,77.024,171.699,171.7,171.699    c94.675,0,171.699-77.024,171.699-171.699S321.871,84.302,227.197,84.302z M227.197,393.588    c-75.867,0-137.589-61.722-137.589-137.588s61.722-137.588,137.589-137.588c75.866,0.001,137.588,61.723,137.588,137.588    C364.785,331.866,303.063,393.588,227.197,393.588z"/>
	</g>
</g>
<g>
	<g>
		<path d="M264.349,253.495c2.584-2.989,4.158-6.877,4.158-11.139c0-9.419-7.636-17.055-17.055-17.055h-19.866    c-1.635-0.227-3.297-0.357-4.99-0.357s-3.355,0.13-4.99,0.357H202.56c-9.419,0-17.055,7.636-17.055,17.055    c0,3.951,1.357,7.578,3.611,10.47c-2.907,7.052-4.547,15.077-4.547,23.662c0,28.904,18.461,51.546,42.026,51.546    s42.025-22.641,42.025-51.546C268.62,268.174,267.085,260.383,264.349,253.495z M226.595,293.923    c-2.418,0-7.916-6.587-7.916-17.435c0-10.847,5.497-17.434,7.916-17.434c2.417,0,7.915,6.587,7.915,17.434    C234.51,287.336,229.012,293.923,226.595,293.923z"/>
	</g>
</g>
</svg>