<svg xmlns="http://www.w3.org/2000/svg" version="1.0" viewBox="0 0 32 32">
	<g>
		<path d="M19,16c-1.7,0-3,1.3-3,3c0,0.9,0.4,1.7,1,2.2V20c0-0.6,0.4-1,1-1h2c0.6,0,1,0.4,1,1v1.2c0.6-0.6,1-1.3,1-2.2 C22,17.3,20.7,16,19,16z" />
		<path d="M19,8C12.9,8,8,12.9,8,19s4.9,11,11,11s11-4.9,11-11S25.1,8,19,8z M21.5,23.3c-0.2,0.1-0.3,0.1-0.5,0.1V26c0,0.6-0.4,1-1,1 h-2c-0.6,0-1-0.4-1-1v-2.4c-1.8-0.8-3-2.6-3-4.6c0-2.8,2.2-5,5-5s5,2.2,5,5C24,20.8,23,22.4,21.5,23.3z" />
		<path d="M6,19c0-7.2,5.8-13,13-13c0.9,0,1.8,0.1,2.7,0.3C19.7,3.6,16.5,2,13,2C6.9,2,2,6.9,2,13c0,3.5,1.6,6.7,4.3,8.7 C6.1,20.8,6,19.9,6,19z" />
	</g>
</svg>