<svg xmlns="http://www.w3.org/2000/svg" xmlns:xlink="http://www.w3.org/1999/xlink" fill="#000000" height="800px" width="800px" version="1.1" id="Layer_1" viewBox="0 0 512.001 512.001" xml:space="preserve">
<g>
	<g>
		<path d="M500.932,16.945l-5.875-5.876c-14.759-14.757-38.773-14.758-53.53,0l-34.313,34.313    c-7.723,7.723-11.398,17.981-11.036,28.122l-69.486,64.72c-12.758-8.647-26.634-15.66-41.154-20.711    c-0.714-0.249-1.445-0.446-2.188-0.589c-33.917-6.573-68.747,4.084-93.175,28.512c-16.513,16.513-27.073,38.385-29.734,61.585    l-2.363,20.608l-0.151-0.269c-5.804-10.377-15.888-17.263-27.664-18.895c-11.779-1.633-23.354,2.253-31.761,10.661l-30.572,30.571    l-24.172,14.241c-12.274,7.099-22.058,17.264-29.908,31.074c-23.875,42.003-16.323,95.568,18.366,130.259l16.07,16.07    l-6.347,6.347c-6.18,6.179-6.18,16.198,0,22.377c3.089,3.089,7.139,4.635,11.188,4.635s8.099-1.546,11.188-4.635l6.347-6.347    l16.069,16.069c21.154,21.154,49.321,32.217,77.61,32.215c18.102-0.001,36.258-4.532,52.647-13.848    c13.811-7.849,23.976-17.634,31.075-29.91l14.239-24.168l30.571-30.572c8.408-8.407,12.294-19.984,10.661-31.762    c-1.632-11.777-8.519-21.859-18.891-27.662l-0.274-0.153l20.607-2.363c23.201-2.661,45.073-13.219,61.586-29.734    c24.428-24.427,35.088-59.259,28.512-93.175c-0.143-0.743-0.341-1.473-0.589-2.188c-5.051-14.521-12.065-28.395-20.711-41.154    l64.72-69.486c0.452,0.016,0.905,0.033,1.357,0.033c9.693,0,19.386-3.69,26.765-11.069l34.313-34.313    C515.69,55.718,515.69,31.704,500.932,16.945z M95.129,415.969l35.194-45.721l11.431,11.43l-45.722,35.194L95.129,415.969z     M344.187,299.452c-11.48,11.48-26.685,18.822-42.814,20.671l-32.819,3.764c-4.138,0.474-7.923,2.562-10.531,5.809    c-6.324,7.87-8.847,18.069-6.921,27.98c1.926,9.912,8.085,18.423,16.891,23.35l1.196,0.669c2.255,1.261,2.846,3.292,2.998,4.391    c0.152,1.098,0.135,3.214-1.693,5.04l-31.994,31.994c-0.944,0.944-1.766,2.006-2.444,3.156l-15.294,25.959    c-0.024,0.042-0.049,0.083-0.073,0.126c-4.209,7.295-10.534,13.274-19.34,18.279c-29.659,16.86-67.591,11.418-92.243-13.232    l-6.088-6.088c0.444-0.276,0.881-0.569,1.303-0.894l71.01-54.661c3.607-2.777,5.844-6.973,6.139-11.516s-1.383-8.993-4.602-12.211    l-36.908-36.907c-3.22-3.22-7.67-4.888-12.211-4.602c-4.543,0.295-8.739,2.531-11.516,6.139l-54.66,71.01    c-0.324,0.422-0.62,0.857-0.896,1.299l-6.085-6.086c-24.65-24.65-30.091-62.582-13.231-92.243    c5.005-8.806,10.984-15.133,18.279-19.342c0.042-0.024,0.083-0.047,0.124-0.072l25.959-15.293c1.151-0.678,2.212-1.5,3.157-2.444    l31.994-31.994c1.429-1.427,3.032-1.751,4.189-1.751c0.323,0,0.611,0.025,0.851,0.058c1.098,0.152,3.129,0.744,4.39,2.998    l0.667,1.193c4.93,8.812,13.442,14.97,23.353,16.896c9.912,1.925,20.11-0.596,27.98-6.921c3.247-2.609,5.335-6.393,5.809-10.532    l3.764-32.819c1.849-16.129,9.191-31.334,20.671-42.815c16.722-16.722,40.454-24.16,63.684-20.025    c9.388,3.349,18.288,7.598,26.619,12.637l-80.492,74.971c-3.142,2.927-4.959,7.005-5.036,11.298    c-0.077,4.293,1.596,8.433,4.632,11.47l31.88,31.88c2.97,2.97,6.996,4.635,11.188,4.635c0.094,0,0.187-0.001,0.282-0.002    c4.293-0.077,8.372-1.894,11.298-5.036l74.971-80.493c5.038,8.331,9.288,17.231,12.637,26.619    C368.351,259.001,360.909,282.73,344.187,299.452z M264.62,256.075l-8.694-8.694l126.744-118.049L264.62,256.075z M478.554,48.098    L451.74,74.913l-14.652-14.652l26.814-26.814c2.421-2.419,6.358-2.418,8.777,0l5.875,5.875    C480.974,41.741,480.974,45.678,478.554,48.098z"/>
	</g>
</g>
<g>
	<g>
		<path d="M196.669,272.253l-3.21-0.748c-13.018-3.04-26.875-0.55-38.021,6.821l-4.57,3.022c-3.959,2.617-8.875,3.485-13.491,2.374    c-8.498-2.043-17.04,3.191-19.082,11.687c-2.042,8.497,3.19,17.04,11.687,19.083c3.744,0.899,7.558,1.342,11.359,1.342    c9.513,0,18.944-2.773,26.982-8.089l4.57-3.022c3.922-2.594,8.798-3.469,13.381-2.399l3.214,0.749    c8.507,1.992,17.017-3.307,19-11.818S205.18,274.237,196.669,272.253z"/>
	</g>
</g>
<g>
	<g>
		<path d="M240.497,318.544l-0.749-3.214c-1.984-8.511-10.494-13.799-19.002-11.817c-8.511,1.985-13.801,10.492-11.816,19.002    l0.749,3.215c1.068,4.579,0.193,9.454-2.4,13.377l-3.022,4.569c-7.44,11.251-9.898,25.226-6.747,38.341    c1.744,7.254,8.225,12.13,15.372,12.13c1.224,0,2.468-0.143,3.71-0.441c8.497-2.042,13.73-10.586,11.688-19.082    c-1.11-4.615-0.244-9.533,2.374-13.491l3.022-4.57C241.047,345.415,243.532,331.557,240.497,318.544z"/>
	</g>
</g>
</svg>