<svg xmlns="http://www.w3.org/2000/svg" xmlns:xlink="http://www.w3.org/1999/xlink" fill="#000000" height="800px" width="800px" version="1.1" id="Layer_1" viewBox="0 0 512.001 512.001" xml:space="preserve">
<g>
	<g>
		<path d="M495.158,103.3h-7.86v-3.034c0-9.301-7.679-17.177-16.98-17.177H402.52c-9.301,0-17.397,7.875-17.397,17.177v3.034    h-17.965v-3.034c0-9.301-7.818-17.177-17.119-17.177h-67.797c-9.301,0-17.259,7.875-17.259,17.177v3.034h-17.965v-3.034    c0-9.301-7.957-17.177-17.259-17.177h-67.797c-9.301,0-17.119,7.875-17.119,17.177v3.034h-17.965v-3.034    c0-9.301-8.095-17.177-17.397-17.177H41.682c-9.301,0-16.98,7.875-16.98,17.177v3.034h-7.86C7.541,103.3,0,110.402,0,119.703    v99.457c0,7.795,5.279,14.572,12.862,16.382l11.84,2.844v62.705c0,9.301,7.679,16.665,16.98,16.665h67.798    c9.301,0,17.397-7.363,17.397-16.665v-38.475l17.965,4.488v67.28c0,9.301,7.818,17.055,17.119,17.055h67.797    c9.301,0,17.259-7.754,17.259-17.055v-43.05l17.965,4.488v76.62c0,9.301,7.957,17.172,17.259,17.172h67.797    c9.301,0,17.119-7.871,17.119-17.172v-52.39l17.965,4.488v87.195c0,9.301,8.095,17.177,17.397,17.177h67.798    c9.301,0,16.98-7.875,16.98-17.177V348.77l4.017,0.976c1.294,0.309,2.572,0.46,3.877,0.46c3.749,0,7.416-1.252,10.419-3.622    c4.047-3.194,6.39-8.066,6.39-13.22V119.703C512,110.402,504.459,103.3,495.158,103.3z M93.193,284.072H58.386V116.774h34.807    V284.072z M144.842,232.473l-17.965-4.488v-91.001h17.965V232.473z M213.333,317.756h-34.807V116.774h34.807V317.756z     M264.982,261.192l-17.965-4.489V136.984h17.965V261.192z M333.474,355.931h-34.807V116.774h34.807V355.931z M385.123,289.912    l-17.965-4.488v-148.44h17.965V289.912z M453.614,395.23h-34.807V116.774h34.807V395.23z"/>
	</g>
</g>
</svg>