<svg xmlns="http://www.w3.org/2000/svg" xmlns:xlink="http://www.w3.org/1999/xlink" fill="#000000" height="800px" width="800px" version="1.1" id="Layer_1" viewBox="0 0 512 512" xml:space="preserve">
<g>
	<g>
		<path d="M470.999,199.316c28.433-11.861,41.525-25.745,40.681-42.616c-1.172-23.475-28.606-38.506-86.339-47.304    c-41.772-6.366-95.407-8.73-152.75-6.817c-2.342-6.924-8.878-11.915-16.592-11.915c-8.295,0-15.226,5.769-17.045,13.507    c-59.577,3.656-115.049,11.523-157.437,22.391c-56.567,14.504-82.369,32.194-81.197,55.67    c0.544,10.903,6.764,19.983,19.043,27.464C6.318,218.032,0,227.77,0,239.196c0,23.505,26.651,39.885,83.873,51.551    c41.976,8.557,96.332,13.617,154.6,14.463v98.598c0,9.679,7.847,17.527,17.527,17.527c9.679,0,17.527-7.847,17.527-17.527v-98.598    c58.267-0.847,112.625-5.907,154.6-14.463C485.35,279.082,512,262.701,512,239.196C512,222.651,498.774,209.642,470.999,199.316z     M101.431,157.796c38.043-8.756,86.202-15.227,137.042-18.473v7.427c0,9.679,7.847,17.527,17.527,17.527    s17.527-7.847,17.527-17.527v-9.127c49.784-1.659,97.171,0.011,135.111,4.834c38.426,4.885,57.355,11.819,64.998,16.142    c-7.174,5.063-25.318,13.849-63.066,22.537c-42.007,9.668-96.351,16.551-153.018,19.381    c-56.667,2.831-111.426,1.396-154.188-4.043c-38.426-4.885-57.355-11.819-64.996-16.141    C45.54,175.27,63.683,166.485,101.431,157.796z M409.794,258.558c-42.436,7.562-97.055,11.727-153.794,11.727    c-56.739,0-111.358-4.164-153.794-11.727c-38.135-6.795-56.695-14.664-64.112-19.362c4.968-3.148,14.948-7.718,32.448-12.435    c5.086,0.987,10.449,1.913,16.116,2.776c32.37,4.932,71.855,7.465,114.676,7.464c18.785,0,38.219-0.487,57.965-1.473    c52.448-2.618,102.293-8.513,143.592-16.875c2.333,0.384,4.639,0.776,6.904,1.179c38.134,6.795,56.693,14.665,64.111,19.364    C466.488,243.894,447.929,251.763,409.794,258.558z"/>
	</g>
</g>
</svg>